<?xml version="1.0" encoding="utf-8"?>
<!-- Generator: Adobe Illustrator 21.0.0, SVG Export Plug-In . SVG Version: 6.00 Build 0)  -->
<svg version="1.1" id="Warstwa_1" xmlns="http://www.w3.org/2000/svg" xmlns:xlink="http://www.w3.org/1999/xlink" x="0px" y="0px"
	 viewBox="0 0 1024 1024" style="enable-background:new 0 0 1024 1024;" xml:space="preserve">
<style type="text/css">
	.st0{fill:#FF3127;}
	.st1{fill:#00A9E7;}
	.st2{fill:#FFE620;}
	.st3{fill:#D4D900;}
	.st4{fill:#D0BF00;}
	.st5{fill:#7D6F00;}
	.st6{fill:#C7A700;}
</style>
<g transform="translate(0.000000,1024.000000) scale(0.100000,-0.100000)">
	<path d="M5022.9,9052.5c-19-2-80-9-135-14c-782-82-1552-413-2180-939c-116-96-380-360-476-476c-520-621-824-1318-936-2143
		c-25-183-25-801,0-984c112-825,416-1522,936-2143c96-116,360-380,476-476c621-520,1318-824,2143-936c183-25,801-25,984,0
		c825,112,1522,416,2143,936c116,96,380,360,476,476c520,621,824,1318,936,2143c25,183,25,801,0,984c-112,825-416,1522-936,2143
		c-96,116-360,380-476,476c-619,518-1323,826-2137,935c-88,12-216,17-453,19C5206.9,9055.5,5041.9,9054.5,5022.9,9052.5z
		 M5072.9,8620.5c0-117,8-371,19-612c6-118,13-287,16-375c11-312,44-1131,49-1204l5-73l-45,5c-25,2-48,8-52,11c-3,4-10,73-14,154
		c-18,356-77,1737-83,1939l-6,222l28,4c15,2,40,5,56,6l27,1V8620.5z M6029.9,8644.5c1-1,4-303,7-671c4-369,9-700,12-736
		c3-37,2-69-3-71c-4-3-29-3-54,0l-46,4l-7,291c-4,161-9,339-11,397c-8,177-15,778-9,793c4,11,15,12,57,5
		C6004.9,8650.5,6028.9,8645.5,6029.9,8644.5z M3716.9,8309.5c6-9,53-560,111-1281c19-245,38-469,41-497c5-51,4-53-28-73
		c-18-11-36-20-40-20c-3,0-9,26-12,58c-14,130-68,758-106,1212c-22,267-42,506-45,532c-5,44-4,48,22,62
		C3691.9,8319.5,3709.9,8322.5,3716.9,8309.5z M6469.9,8108.5c28-10,31-15,37-72c10-100,7-578-4-578c-29,0-89,34-94,53
		c-3,12-6,154-6,315C6402.9,8151.5,6398.9,8132.5,6469.9,8108.5z M4622.9,8061.5c0-27,7-176,15-333s17-356,21-442
		c7-174,9-168-58-172c-33-1-33-1-35,49c-2,28-7,115-13,195c-5,80-17,253-25,385s-18,263-21,291c-6,50-5,52,22,62c16,6,44,11,62,11
		C4622.9,8108.5,4622.9,8108.5,4622.9,8061.5z M7396.9,7924.5l34-14l7-134c3-73,5-231,3-350l-3-218l-42,21l-42,20l-3,332
		c-2,183-1,338,1,345C7355.9,7941.5,7355.9,7941.5,7396.9,7924.5z M5570.9,7793.5c6-6,20-491,21-737l1-148l-47,7c-27,3-49,6-50,7
		c-3,2-33,743-33,815v74l51-6C5542.9,7801.5,5567.9,7796.5,5570.9,7793.5z M7873.9,7722.5c12-14,14-233,17-1441
		c3-1387,3-1423-15-1423c-11,0-26,6-35,13c-15,11-17,132-22,1317c-4,718-9,1370-12,1449l-6,144l29-21
		C7846.9,7748.5,7865.9,7731.5,7873.9,7722.5z M6976.9,7517.5c5-4,10-61,11-126c5-221,6-1576,1-1580c-2-2-20,3-40,11l-36,15v851v850
		l28-6C6955.9,7528.5,6971.9,7522.5,6976.9,7517.5z M4216.9,7461.5c3-27,8-88,11-138c3-49,10-161,16-248c12-176,10-187-47-187
		c-30,0-34,3-38,33c-10,59-45,551-40,559c5,7,57,25,81,27C4205.9,7508.5,4213.9,7487.5,4216.9,7461.5z M2562.9,7206.5
		c11-106,33-328,49-493c17-165,31-305,31-311c0-12-77-50-85-42c-5,5-105,890-105,930c0,24,77,125,87,114
		C2542.9,7402.5,2552.9,7313.5,2562.9,7206.5z M6483.9,7101.5l29-17l1-216c1-118,3-250,3-293c2-90-9-105-63-86l-31,11v86
		c0,48-3,187-7,310l-6,222h23C6444.9,7118.5,6467.9,7110.5,6483.9,7101.5z M3001.9,6713.5c18-192,47-516,66-720l34-370l-39-39
		l-38-39l-7,79c-4,44-24,248-45,454s-51,505-66,664l-28,288l39,36c35,33,39,34,46,16C2967.9,7072.5,2984.9,6906.5,3001.9,6713.5z
		 M2252.9,6592.5c22-197,80-721,130-1164s97-870,106-950c8-80,22-201,30-270c14-117,14-125-2-137c-24-18-34-16-34,5c0,9-9,85-20,167
		c-18,137-48,369-115,890c-14,105-41,314-60,465c-20,151-49,376-65,500s-43,336-60,473c-18,136-29,257-26,270c7,27,66,121,72,115
		C2210.9,6953.5,2230.9,6790.5,2252.9,6592.5z M1946.9,6161.5c15-120,43-339,62-488c19-148,43-333,54-410l19-140l-21-18
		c-12-10-24-14-28-10s-12,44-18,88s-43,301-83,570l-71,490l23,68c12,37,25,67,28,67C1915.9,6378.5,1930.9,6280.5,1946.9,6161.5z
		 M7436.9,6292.5c14-14,16-76,16-535v-519h-28c-61,0-60-15-64,553l-3,517h32C7406.9,6308.5,7428.9,6301.5,7436.9,6292.5z
		 M5247.9,6113.5c226-34,423-97,618-197c126-65,186-110,326-244c208-199,336-373,456-619c175-358,243-675,329-1525
		c39-381,90-1072,101-1355c3-82,10-217,16-300c11-176,24-152-131-227c-215-104-422-176-695-243c-334-82-550-108-880-109l-240-1
		l2,115c0,63,6,210,12,325c30,557,24,1260-15,1650c-22,224-65,496-89,556c-5,13,18,24,117,58c181,63,338,142,362,181
		c43,74-34,180-132,180c-17,0-68-18-115-39c-224-103-673-224-932-251c-179-19-457-8-650,27c-105,19-293,90-450,171
		c-181,94-292,219-325,367c-18,80-13,240,10,330c25,99,95,243,159,327c285,375,873,700,1476,814
		C4769.9,6140.5,5041.9,6144.5,5247.9,6113.5z M8332.9,6082.5c36-15,40-19,40-53c2-273-4-897-9-923c-1-9-53-10-75-2
		c-14,5-16,59-16,500c0,316,4,494,10,494C8287.9,6098.5,8310.9,6091.5,8332.9,6082.5z M8769.9,5533.5l36-15l-7-828
		c-8-1055-9-1086-47-1177c-62-149-59-179-53,475c2,327,7,658,9,735s4,294,5,483c0,228,3,342,10,342
		C8728.9,5548.5,8749.9,5541.5,8769.9,5533.5z M2755.9,5284.5c6-81,4-89-25-153l-32-68l-12,100c-19,160-19,167,19,191
		c17,12,35,20,38,18S2752.9,5330.5,2755.9,5284.5z M2137.9,4681.5c9-82,79-626,115-893c54-413,58-472,34-447c-3,3-26,142-50,309
		c-156,1078-155,1071-142,1079C2121.9,4747.5,2130.9,4737.5,2137.9,4681.5z M2857.9,4223.5c6-25,35-296,35-329c0-28-36-54-52-38
		c-5,5-18,90-28,188c-11,99-22,202-25,229l-6,50l35-40C2836.9,4261.5,2854.9,4234.5,2857.9,4223.5z M3664.9,3846.5
		c11-10,18-50,27-158c15-195,17-180-24-180c-42,0-41-3-55,173c-14,179-14,177,13,177C3638.9,3858.5,3655.9,3852.5,3664.9,3846.5z
		 M4456.9,3831.5c2-10,7-70,11-133c3-63,12-205,20-315c28-404,29-455,12-455c-19,0-21,15-43,300c-8,118-23,304-33,413
		c-9,109-15,200-12,202C4422.9,3855.5,4451.9,3846.5,4456.9,3831.5z M2576.9,3639.5c6-9,44-329,91-766c14-132,28-259,31-283l5-43
		l-25,16c-19,13-26,26-26,49c0,63-43,478-76,732c-19,144-34,271-34,283C2542.9,3648.5,2566.9,3656.5,2576.9,3639.5z M8347.9,3221.5
		l-7-418l-25-37c-57-84-54-100-51,368l2,429l37,38c20,20,40,37,44,37C8350.9,3638.5,8350.9,3450.5,8347.9,3221.5z M7422.9,2558.5
		c5-581,4-626-12-644c-10-11-19-18-22-15c-7,8-17,1275-9,1282c4,4,14,6,23,5C7415.9,3183.5,7418.9,3112.5,7422.9,2558.5z
		 M4156.9,2956.5c7-62,32-359,42-499c6-94,6-97-16-104c-12-4-26-3-30,2c-7,7-29,229-56,571l-7,82h31
		C4149.9,3008.5,4151.9,3006.5,4156.9,2956.5z M3370.9,2606.5c7-7,12-32,12-57c0-26,12-161,25-301c38-383,41-435,24-425
		c-26,15-49,38-44,44c2,4-2,54-10,111c-7,58-16,152-20,210s-13,164-21,235c-19,175-18,195,4,195
		C3350.9,2618.5,3363.9,2613.5,3370.9,2606.5z M3843.9,1933.5c3-22,9-104,13-182c7-150,4-161-37-130c-12,9-20,47-32,161
		c-21,206-22,198,17,194C3833.9,1973.5,3837.9,1969.5,3843.9,1933.5z"/>
	<path d="M3486.9,5634.5c-104-45-112-186-14-236c71-36,143-19,180,43C3722.9,5555.5,3608.9,5687.5,3486.9,5634.5z"/>
	<path d="M4164.9,5538.5c-96-59-96-201,0-260c95-57,218,18,218,132C4382.9,5520.5,4256.9,5594.5,4164.9,5538.5z"/>
</g>
<g>
	<path class="st0" d="M603.2,431.3c-40.3,26.9-126,17.7-158.8-13l13.5-30.3c34.3,21.8,98,28.3,136.9,11.3L603.2,431.3z"/>
	<path class="st1" d="M594.8,399.3c-39,17-102.7,10.5-136.9-11.3l15.2-34c31.6,14.6,77.9,19.1,112.3,9.4L594.8,399.3z"/>
	<path class="st0" d="M585.4,363.4c-34.4,9.7-80.7,5.2-112.3-9.4l15.9-35.4c26.2,9,58.8,12,86.6,7.3L585.4,363.4z"/>
	<path class="st1" d="M575.5,325.8c-27.7,4.7-60.4,1.7-86.6-7.3l16.4-36.6c19.1,4.8,40.3,6.7,60,5.1L575.5,325.8z"/>
	<path class="st0" d="M565.4,287c-19.8,1.6-41-0.3-60-5.1l16.8-37.6c10.7,1.8,21.8,2.8,32.7,2.8L565.4,287z"/>
	<path class="st1" d="M554.9,247.1c-10.9,0-22-0.9-32.7-2.8l20.2-45.1L554.9,247.1z"/>
	<g>
		<polygon class="st2" points="580.7,192.4 580.6,195.8 590.8,201.9 578.2,201.9 579.6,206.1 574,206.9 586.4,219.3 587.1,225.9 
			572.8,218.7 566.5,216.9 575.1,234.5 567.7,231.3 566.6,239 556.3,224.9 553.2,226.3 553.1,244.1 547.7,238.2 543.4,243 
			540.2,225.2 535,236.8 529.1,242.9 525.3,239.3 527.8,222.7 522.7,225.1 521.4,220.8 509.7,229.6 509.6,223.3 501.7,224.5 
			497.5,221.7 501.8,213.5 495.6,211.8 492.5,208.1 504.8,199.8 489.8,199 503,193.1 506.1,189.6 497.3,185.6 489,180.1 
			490.3,175.5 502.1,174.7 501.3,170.1 511.4,171.2 505.6,163.4 499.9,153.5 514.8,161.3 512.3,153 515.2,149.9 522.1,153.4 
			522.9,146.6 524.5,139 530.7,143.8 534.8,143.3 538.3,136.8 542.9,149 547.5,136.5 551.4,140.8 557.7,133.9 559.5,143.5 
			559.9,152.8 569,143.9 568.9,152.1 565.9,161.9 575.9,156.2 571.4,165.4 578.9,164 584.1,165.4 579.8,172 577.9,176.5 
			579.7,179.4 583.6,182 579.5,186 581.4,189.1 		"/>
	</g>
</g>
<g>
	<path class="st1" d="M315.9,625.8c0,0,16.9-13.9,21.1-16.2s27.9,3.2,22.8,12.6c-5.1,9.4-12.6,16.4-12.6,16.4L315.9,625.8z"/>
	<path class="st0" d="M203.4,712.4l112.6-86.5c0,0,21-4.7,31.4,12.8l-89.7,95.2L203.4,712.4z"/>
	<path class="st2" d="M154.2,799.4c0,0,21.1,13.3,43.1-5.9c21.9-19.2,60.3-59.7,60.3-59.7s-15.4-30.5-54.2-21.4l-90.7,70.1
		L154.2,799.4z"/>
	<path class="st3" d="M191.7,730.3c0,0,20.1,10.9,7.1,45.4c-13,34.4-39.6,18.9-39.6,18.9l-31.1-13.2l34-63.6L191.7,730.3z"/>
	<path class="st4" d="M190.4,739.8c0,0,10.8,8,0.9,33.2c-9.9,25.3-25.7,17.7-25.7,17.7l-18.7-8.1l24.4-49.5L190.4,739.8z"/>
	<path class="st5" d="M187.9,749.1c0,0,7.8,10.1-14.7,33.3l-15.8-5.8l20.8-30.8L187.9,749.1z"/>
	<path class="st6" d="M167.8,791.3c0,0-7.7-3.2,1.6-27.3c7.5-19.5,18.5-14.9,18.5-14.9l-22.9-7.8l-18,41.2L167.8,791.3z"/>
	<path class="st4" d="M168.4,797.7c0,0-16.5-4.7-5.7-35c9.9-27.7,27.8-23,27.8-23l-37.5-14.3l-20.4,57.7L168.4,797.7z"/>
	<path class="st2" d="M142.3,709.2c-11.3-4-29.1,0.9-38.5,20.3s-9.8,42.3,0.1,48.6c9.9,6.2,50.3,21.3,50.3,21.3s-11.2-19,2.5-46.1
		c13.3-26.4,35-23.1,35-23.1L142.3,709.2z"/>
	<path class="st1" d="M269.7,720.9l10.3-11c-7.5-9-21.5-19.9-45.7-21.4l-15,11.5C232.7,700.3,253.7,703.7,269.7,720.9z"/>
	<path class="st1" d="M290.9,698.4l10.4-11.1c-7.2-8.1-19.7-17.3-40-19.6l-14.7,11.3C259.4,680.1,276.9,684.3,290.9,698.4z"/>
	<path class="st1" d="M287.9,647.3l-14.4,11.1c11.8,1.8,25.9,6.7,37.6,18.6l10.4-11.1C315.1,658.7,304.5,650.7,287.9,647.3z"/>
	<path class="st1" d="M311.9,629l-14.3,11c10.6,2,22.7,6.5,33.3,16.1l10.5-11.1C335.1,638.6,325.6,632.2,311.9,629z"/>
</g>
</svg>
